<svg xmlns="http://www.w3.org/2000/svg" version="1.1" xmlns:xlink="http://www.w3.org/1999/xlink" xmlns:svgjs="http://svgjs.dev/svgjs" width="128" height="128" viewBox="0 0 128 128"><g transform="matrix(0.8046875,0,0,0.8046875,12.333870967741937,12.333870967741937)"><svg viewBox="0 0 155 155" data-background-color="#ffffff" preserveAspectRatio="xMidYMid meet" height="128" width="128" xmlns="http://www.w3.org/2000/svg" xmlns:xlink="http://www.w3.org/1999/xlink"><g id="tight-bounds" transform="matrix(1,0,0,1,0.25,0.25)"><svg viewBox="0 0 154.5 154.5" height="154.5" width="154.5"><g><svg></svg></g><g><svg viewBox="0 0 154.5 154.5" height="154.5" width="154.5"><g transform="matrix(1,0,0,1,46.45737750000001,43.83165)"><svg viewBox="0 0 61.58524499999999 66.8367" height="66.8367" width="61.58524499999999"><g><svg viewBox="0 0 61.58524499999999 66.8367" height="66.8367" width="61.58524499999999"><g><svg viewBox="0 0 61.58524499999999 66.8367" height="66.8367" width="61.58524499999999"><g><svg viewBox="0 0 61.58524499999999 66.8367" height="66.8367" width="61.58524499999999"><g><svg viewBox="0 0 61.58524499999999 66.8367" height="66.8367" width="61.58524499999999"><g transform="matrix(1,0,0,1,0,0)"><svg width="61.58524499999999" viewBox="3.5 -35 32.25 35" height="66.8367" data-palette-color="#000000"><path d="M25.15 0L18.8-9.3 13.4-9.3 13.4 0 3.5 0 3.5-35 19.5-35Q24.25-35 27.75-33.43 31.25-31.85 33.15-28.93 35.05-26 35.05-22.05L35.05-22.05Q35.05-18.25 33.27-15.43 31.5-12.6 28.2-11L28.2-11 35.75 0 25.15 0ZM25.05-22.05Q25.05-24.5 23.5-25.85 21.95-27.2 18.9-27.2L18.9-27.2 13.4-27.2 13.4-16.95 18.9-16.95Q21.95-16.95 23.5-18.28 25.05-19.6 25.05-22.05L25.05-22.05Z" opacity="1" transform="matrix(1,0,0,1,0,0)" fill="#000000" class="undefined-text-0" data-fill-palette-color="primary" id="text-0"></path></svg></g></svg></g></svg></g></svg></g><g></g></svg></g></svg></g><g><path d="M0 154.5v-154.5h154.5v154.5zM148.473 148.473v-142.446h-142.446v142.446z" fill="#000000" fill-rule="nonzero" stroke="none" stroke-width="1" stroke-linecap="butt" stroke-linejoin="miter" stroke-miterlimit="10" stroke-dasharray="" stroke-dashoffset="0" font-family="none" font-weight="none" font-size="none" text-anchor="none" style="mix-blend-mode: normal" data-fill-palette-color="tertiary"></path></g></svg></g><defs></defs></svg><rect width="154.5" height="154.5" fill="none" stroke="none" visibility="hidden"></rect></g></svg></g></svg>