<svg xmlns="http://www.w3.org/2000/svg" version="1.1" xmlns:xlink="http://www.w3.org/1999/xlink" xmlns:svgjs="http://svgjs.dev/svgjs" width="1000" height="1000" viewBox="0 0 1000 1000"><rect width="1000" height="1000" fill="#ffffff"></rect><g transform="matrix(0.7,0,0,0.7,149.57575757575756,282.1265587044535)"><svg viewBox="0 0 396 247" data-background-color="#ffffff" preserveAspectRatio="xMidYMid meet" height="623" width="1000" xmlns="http://www.w3.org/2000/svg" xmlns:xlink="http://www.w3.org/1999/xlink"><g id="tight-bounds" transform="matrix(1,0,0,1,0.2400000000000091,-0.09999999999999432)"><svg viewBox="0 0 395.52 247.2" height="247.2" width="395.52"><g><svg></svg></g><g><svg viewBox="0 0 395.52 247.2" height="247.2" width="395.52"><g transform="matrix(1,0,0,1,39.55199999999999,80.53461227601981)"><svg viewBox="0 0 316.416 86.13077544796036" height="86.13077544796036" width="316.416"><g><svg viewBox="0 0 316.416 86.13077544796036" height="86.13077544796036" width="316.416"><g><svg viewBox="0 0 316.416 86.13077544796036" height="86.13077544796036" width="316.416"><g><svg viewBox="0 0 316.416 86.13077544796036" height="86.13077544796036" width="316.416"><g><svg viewBox="0 0 316.416 86.13077544796036" height="86.13077544796036" width="316.416"><g transform="matrix(1,0,0,1,0,0)"><svg width="316.416" viewBox="3.5 -35.70000076293945 131.14999389648438 35.70000076293945" height="86.13077544796036" data-palette-color="#000000"><path d="M25.15 0L18.8-9.3 13.4-9.3 13.4 0 3.5 0 3.5-35 19.5-35Q24.25-35 27.75-33.43 31.25-31.85 33.15-28.93 35.05-26 35.05-22.05L35.05-22.05Q35.05-18.25 33.27-15.43 31.5-12.6 28.2-11L28.2-11 35.75 0 25.15 0ZM25.05-22.05Q25.05-24.5 23.5-25.85 21.95-27.2 18.9-27.2L18.9-27.2 13.4-27.2 13.4-16.95 18.9-16.95Q21.95-16.95 23.5-18.28 25.05-19.6 25.05-22.05L25.05-22.05ZM81.45-35.7Q87.65-35.7 91.12-32.02 94.6-28.35 94.6-21.4L94.6-21.4 94.6 0 84.7 0 84.7-21.1Q84.7-24.25 83.05-25.88 81.4-27.5 78.65-27.5L78.65-27.5Q75.7-27.5 73.97-25.78 72.25-24.05 72.25-20.6L72.25-20.6 72.25 0 62.35 0 62.35-21.1Q62.35-24.25 60.82-25.88 59.3-27.5 56.65-27.5L56.65-27.5Q53.8-27.5 52.1-25.78 50.4-24.05 50.4-20.6L50.4-20.6 50.4 0 40.5 0 40.5-35 50.1-35 50.1-31.1Q51.7-33.35 54.22-34.52 56.75-35.7 60.1-35.7L60.1-35.7Q63.55-35.7 66.12-34.45 68.7-33.2 70.3-30.8L70.3-30.8Q72.1-33.2 75-34.45 77.9-35.7 81.45-35.7L81.45-35.7ZM124.75-35L134.65-35 134.65 0 124.75 0 124.75-13.65 111.25-13.65 111.25 0 101.34 0 101.34-35 111.25-35 111.25-21.85 124.75-21.85 124.75-35Z" opacity="1" transform="matrix(1,0,0,1,0,0)" fill="#000000" class="undefined-text-0" data-fill-palette-color="primary" id="text-0"></path></svg></g></svg></g></svg></g></svg></g><g></g></svg></g></svg></g><g><path xmlns="http://www.w3.org/2000/svg" d="M0 247.2v-247.2h395.52v247.2zM387.753 239.433v-231.666h-379.986v231.666z" fill="#000000" fill-rule="nonzero" stroke="none" stroke-width="1" stroke-linecap="butt" stroke-linejoin="miter" stroke-miterlimit="10" stroke-dasharray="" stroke-dashoffset="0" font-family="none" font-weight="none" font-size="none" text-anchor="none" style="mix-blend-mode: normal" data-fill-palette-color="tertiary"></path></g></svg></g><defs></defs></svg><rect width="395.52" height="247.2" fill="none" stroke="none" visibility="hidden"></rect></g></svg></g></svg>